# xmcd
#
# Track frame offsets:
#	150
#	17050
#	28347
#	43315
#	57565
#	75205
#	93975
#	110217
#	121770
#	137117
#	148005
#	168797
#	194592
#	212072
#	229765
#
# Disc length: 3259 seconds
#
# Revision: 0
# Processed by: cddbd v1.5.1PL0 Copyright (c) Steve Scherf et al.
# Submitted via: audiograbber 1.82.02
#
DISCID=d60cb90f
DTITLE=Various Artist - Sound Choice 8214 Yesterday's Country Vol 2
DYEAR=1900
DGENRE=Karaoke
TTITLE0=Sammy Kershaw - Queen of my double wide trailer
TTITLE1=Willie Nelson - Blue eyes crying in the rain
TTITLE2=Dolly Parton - Eagle when she flies
TTITLE3=Marty Stuart - Burn me down
TTITLE4=Billy Ray Cyrus - Could've been me
TTITLE5=Vince Gill - I still believe in you
TTITLE6=Doug Stone - I thought it was you
TTITLE7=Shania Twain - Dance with the one that brought you
TTITLE8=Kathy Mattea - Come from the heart
TTITLE9=Randy Travis - Heros and friends
TTITLE10=Restless Heart - Fast movin' train
TTITLE11=Dolly Parton - PMS Blues
TTITLE12=George Strait - Chill of an early fall
TTITLE13=George Strait - I've come to expect it frrom you
TTITLE14=Tanya Tucker - If your heart ain't busy tonight
EXTD=
EXTT0=
EXTT1=
EXTT2=
EXTT3=
EXTT4=
EXTT5=
EXTT6=
EXTT7=
EXTT8=
EXTT9=
EXTT10=
EXTT11=
EXTT12=
EXTT13=
EXTT14=
PLAYORDER=
